<?xml version="1.0" encoding="utf-8"?>
<!-- Generator: Adobe Illustrator 23.0.2, SVG Export Plug-In . SVG Version: 6.00 Build 0)  -->
<svg version="1.1" id="Layer_1" xmlns="http://www.w3.org/2000/svg" xmlns:xlink="http://www.w3.org/1999/xlink" x="0px" y="0px"
	 viewBox="0 0 530.3 88.5" style="enable-background:new 0 0 530.3 88.5;" xml:space="preserve">
<style type="text/css">
	.st0{fill:#FFFFFF;}
	.st1{fill:#0090A1;}
</style>
<g>
	<path class="st0" d="M347.2,64.3c-0.2,0-0.3,0.1-0.3,0.3v4c0,0.1-0.1,0.2-0.2,0.2h-1c-0.2,0-0.3,0.1-0.3,0.3v2.3
		c0,0.2,0.1,0.3,0.3,0.3h1c0.1,0,0.2,0.1,0.2,0.2V79c0,2.8,1.1,4.2,4,4.2h1.4c0.2,0,0.3-0.1,0.3-0.3v-2.4c0-0.2-0.1-0.3-0.3-0.3
		h-0.8c-0.9,0-1.4-0.3-1.4-1.4v-7c0-0.1,0.1-0.2,0.2-0.2h1.9c0.2,0,0.3-0.1,0.3-0.3V69c0-0.2-0.1-0.3-0.3-0.3h-1.9
		c-0.1,0-0.2-0.1-0.2-0.2v-4c0-0.2-0.1-0.3-0.3-0.3h-2.6V64.3z M361.8,68.4c-2.9,0-5.1,1.5-5.9,4c-0.3,0.9-0.5,2.1-0.5,3.6
		s0.2,2.6,0.5,3.5c0.8,2.5,3,4,6,4c2.7,0,4.7-1,5.9-2.5c0.1-0.1,0.1-0.3,0-0.4L366,79c-0.1-0.1-0.3-0.1-0.5,0.1
		c-0.7,0.8-1.8,1.4-3.4,1.4s-2.8-0.8-3.2-2.2c-0.1-0.3-0.2-0.7-0.2-1.1c0-0.1,0.1-0.2,0.2-0.2h8.9c0.2,0,0.3-0.1,0.3-0.3
		c0-2.3-0.1-3.3-0.5-4.3C366.9,69.9,364.7,68.4,361.8,68.4L361.8,68.4z M361.8,71.3c1.4,0,2.4,0.7,2.8,1.9c0.1,0.4,0.2,0.7,0.2,1.2
		c0,0.1-0.1,0.2-0.2,0.2H359c-0.1,0-0.2-0.1-0.2-0.2c0-0.5,0.1-0.9,0.2-1.2C359.4,71.9,360.4,71.3,361.8,71.3L361.8,71.3z
		 M379.5,68.4c-2,0-3.1,0.7-3.8,1.7l0,0V69c0-0.2-0.1-0.3-0.3-0.3h-4.5c-0.2,0-0.3,0.1-0.3,0.3v2.3c0,0.2,0.1,0.3,0.3,0.3h1.3
		c0.1,0,0.2,0.1,0.2,0.2v13.6c0,0.1-0.1,0.2-0.2,0.2h-1.3c-0.2,0-0.3,0.1-0.3,0.3v2.3c0,0.2,0.1,0.3,0.3,0.3h6.3
		c0.2,0,0.3-0.1,0.3-0.3v-2.3c0-0.2-0.1-0.3-0.3-0.3h-1.3c-0.1,0-0.2-0.1-0.2-0.2v-3.6l0,0c0.7,1,1.9,1.7,3.8,1.7
		c2.5,0,4.3-1.2,5-3.5c0.4-1.1,0.5-2.1,0.5-4.1s-0.1-3-0.5-4.1C383.8,69.6,382,68.4,379.5,68.4L379.5,68.4z M378.7,71.4
		c1.4,0,2.3,0.7,2.7,1.9c0.2,0.7,0.3,1.4,0.3,2.7c0,1.3-0.1,2-0.3,2.7c-0.4,1.2-1.3,1.9-2.7,1.9c-1.4,0-2.3-0.7-2.7-1.9
		c-0.2-0.7-0.3-1.4-0.3-2.7c0-1.3,0.1-2,0.3-2.7C376.4,72.1,377.3,71.4,378.7,71.4L378.7,71.4z M394.1,68.4c-2.9,0-5.1,1.5-6,4
		c-0.3,1-0.5,2-0.5,3.6s0.1,2.5,0.5,3.6c0.8,2.5,3,4,6,4c2.9,0,5.1-1.5,5.9-4c0.3-1,0.5-2,0.5-3.6s-0.1-2.5-0.5-3.6
		C399.3,69.9,397,68.4,394.1,68.4L394.1,68.4z M394.1,71.4c1.4,0,2.3,0.7,2.7,1.9c0.2,0.8,0.3,1.4,0.3,2.7c0,1.2-0.1,1.9-0.3,2.7
		c-0.4,1.2-1.4,1.9-2.7,1.9c-1.4,0-2.3-0.7-2.7-1.9c-0.2-0.8-0.3-1.4-0.3-2.7c0-1.2,0.1-1.9,0.3-2.7
		C391.8,72.1,392.8,71.4,394.1,71.4L394.1,71.4z M404.5,64.3c-0.2,0-0.3,0.1-0.3,0.3v4c0,0.1-0.1,0.2-0.2,0.2h-1
		c-0.2,0-0.3,0.1-0.3,0.3v2.3c0,0.2,0.1,0.3,0.3,0.3h1c0.1,0,0.2,0.1,0.2,0.2V79c0,2.8,1.1,4.2,4,4.2h1.4c0.2,0,0.3-0.1,0.3-0.3
		v-2.4c0-0.2-0.1-0.3-0.3-0.3h-0.8c-0.9,0-1.4-0.3-1.4-1.4v-7c0-0.1,0.1-0.2,0.2-0.2h1.9c0.2,0,0.3-0.1,0.3-0.3V69
		c0-0.2-0.1-0.3-0.3-0.3h-1.9c-0.1,0-0.2-0.1-0.2-0.2v-4c0-0.2-0.1-0.3-0.3-0.3h-2.6V64.3z M415.2,62.8c-0.2,0-0.3,0.1-0.3,0.3v2.6
		c0,0.2,0.1,0.3,0.3,0.3h2.8c0.2,0,0.3-0.1,0.3-0.3v-2.6c0-0.2-0.1-0.3-0.3-0.3H415.2L415.2,62.8z M413.4,68.7
		c-0.2,0-0.3,0.1-0.3,0.3v2.3c0,0.2,0.1,0.3,0.3,0.3h1.3c0.1,0,0.2,0.1,0.2,0.2V80c0,0.1-0.1,0.2-0.2,0.2h-1.3
		c-0.2,0-0.3,0.1-0.3,0.3v2.3c0,0.2,0.1,0.3,0.3,0.3h6.3c0.2,0,0.3-0.1,0.3-0.3v-2.3c0-0.2-0.1-0.3-0.3-0.3h-1.3
		c-0.1,0-0.2-0.1-0.2-0.2V69c0-0.2-0.1-0.3-0.3-0.3H413.4L413.4,68.7z"/>
	<path class="st0" d="M332,61.8h7.2c0.2,0,0.3-0.1,0.3-0.3v-1.7c0-0.2-0.1-0.3-0.3-0.3H332c-0.2,0-0.3,0.1-0.3,0.3v1.7
		C331.6,61.6,331.8,61.8,332,61.8L332,61.8z"/>
	<path class="st0" d="M342.3,68.7c-1-2.9-3.3-4.5-6.7-4.5c-3.3,0-5.7,1.6-6.7,4.5c-0.4,1.2-0.5,2.3-0.5,5.2c0,2.9,0.1,4,0.5,5.2
		c1,2.9,3.3,4.5,6.7,4.5c3.4,0,5.7-1.6,6.7-4.5c0.4-1.2,0.5-2.3,0.5-5.2C342.8,70.9,342.7,69.9,342.3,68.7L342.3,68.7z M331.8,73.9
		c0-2.7,0.1-3.6,0.3-4.3c0.5-1.6,1.7-2.4,3.4-2.4c1.7,0,2.9,0.8,3.5,2.4c0.2,0.7,0.3,1.5,0.3,4.3c0,2.7-0.1,3.6-0.3,4.3
		c-0.5,1.6-1.7,2.4-3.5,2.4c-1.7,0-2.9-0.8-3.4-2.4C332,77.5,331.8,76.6,331.8,73.9L331.8,73.9z"/>
	<path class="st0" d="M328.5,10c-0.2,0-0.3,0.1-0.3,0.3v0.9c0,0.2,0.1,0.3,0.3,0.3h1.7c0.1,0,0.2,0.1,0.2,0.2v17
		c0,0.1-0.1,0.2-0.2,0.2h-1.7c-0.2,0-0.3,0.1-0.3,0.3V30c0,0.2,0.1,0.3,0.3,0.3h5.3c0.2,0,0.3-0.1,0.3-0.3v-0.9
		c0-0.2-0.1-0.3-0.3-0.3h-1.7c-0.1,0-0.2-0.1-0.2-0.2v-2.5l3-3.5l4.4,7.4c0.1,0.2,0.3,0.3,0.5,0.3h2.4c0.2,0,0.3-0.1,0.3-0.3v-0.9
		c0-0.2-0.1-0.3-0.3-0.3h-1.5c-0.1,0-0.2,0-0.3-0.2l-4.4-7.3l3-3.6c0.1-0.1,0.2-0.2,0.3-0.2h1.7c0.2,0,0.3-0.1,0.3-0.3v-0.9
		c0-0.2-0.1-0.3-0.3-0.3h-2.3c-0.2,0-0.4,0.1-0.5,0.3l-6.4,7.5V10.3c0-0.2-0.1-0.3-0.3-0.3H328.5L328.5,10z M350,15.8
		c-1.7,0-3.3,0.4-4.5,1c-0.1,0.1-0.2,0.2-0.2,0.4v2.6c0,0.2,0.1,0.3,0.3,0.3h1c0.2,0,0.3-0.1,0.3-0.3V18c0-0.1,0-0.1,0.1-0.2
		c0.7-0.3,1.8-0.5,2.9-0.5c2.8,0,3.5,1,3.5,3.3V22c0,0.1-0.1,0.2-0.2,0.2h-3.5c-3.4,0-5.4,1.4-5.4,4.2s1.9,4.2,4.8,4.2
		c2.3,0,3.8-0.9,4.4-2.1l0,0V30c0,0.2,0.1,0.3,0.3,0.3h3.1c0.2,0,0.3-0.1,0.3-0.3v-0.9c0-0.2-0.1-0.3-0.3-0.3h-1.7
		c-0.1,0-0.2-0.1-0.2-0.2v-8.1C355,17,353.5,15.8,350,15.8L350,15.8z M353.3,23.5c0.1,0,0.2,0.1,0.2,0.2v2.2c0,2-1.6,3.2-4,3.2
		c-2.3,0-3.5-1-3.5-2.8c0-1.9,1.2-2.8,4-2.8L353.3,23.5L353.3,23.5z M368.4,16.1c-0.2,0-0.3,0.1-0.3,0.3v0.9c0,0.2,0.1,0.3,0.3,0.3
		h1.7c0.1,0,0.2,0.1,0.2,0.2v7.4c0,2.5-1.6,3.9-3.8,3.9c-2.5,0-3.6-1.4-3.6-4.3v-8.4c0-0.2-0.1-0.3-0.3-0.3h-3.2
		c-0.2,0-0.3,0.1-0.3,0.3v0.9c0,0.2,0.1,0.3,0.3,0.3h1.7c0.1,0,0.2,0.1,0.2,0.2v7.5c0,3.4,1.7,5.4,4.9,5.4c1.9,0,3.4-0.8,4.1-2.3
		l0,0V30c0,0.2,0.1,0.3,0.3,0.3h3.2c0.2,0,0.3-0.1,0.3-0.3v-0.9c0-0.2-0.1-0.3-0.3-0.3H372c-0.1,0-0.2-0.1-0.2-0.2V16.4
		c0-0.2-0.1-0.3-0.3-0.3H368.4L368.4,16.1z M384.4,15.8c-2,0-3.4,0.9-4.1,2.3l0,0v-1.7c0-0.2-0.1-0.3-0.3-0.3h-3.2
		c-0.2,0-0.3,0.1-0.3,0.3v0.9c0,0.2,0.1,0.3,0.3,0.3h1.7c0.1,0,0.2,0.1,0.2,0.2v10.9c0,0.1-0.1,0.2-0.2,0.2h-1.7
		c-0.2,0-0.3,0.1-0.3,0.3V30c0,0.2,0.1,0.3,0.3,0.3h5.3c0.2,0,0.3-0.1,0.3-0.3v-0.9c0-0.2-0.1-0.3-0.3-0.3h-1.7
		c-0.1,0-0.2-0.1-0.2-0.2v-7.3c0-2.5,1.6-4,3.8-4c2.5,0,3.7,1.4,3.7,4.3v7c0,0.1-0.1,0.2-0.2,0.2h-1.7c-0.2,0-0.3,0.1-0.3,0.3V30
		c0,0.2,0.1,0.3,0.3,0.3h5.3c0.2,0,0.3-0.1,0.3-0.3v-0.9c0-0.2-0.1-0.3-0.3-0.3h-1.6c-0.1,0-0.2-0.1-0.2-0.2v-7.4
		C389.3,17.7,387.5,15.8,384.4,15.8L384.4,15.8z M396.1,10c-0.2,0-0.3,0.1-0.3,0.3V12c0,0.2,0.1,0.3,0.3,0.3h1.3
		c0.2,0,0.3-0.1,0.3-0.3v-1.7c0-0.2-0.1-0.3-0.3-0.3H396.1L396.1,10z M394.1,16.1c-0.2,0-0.3,0.1-0.3,0.3v0.9c0,0.2,0.1,0.3,0.3,0.3
		h1.7c0.1,0,0.2,0.1,0.2,0.2v10.9c0,0.1-0.1,0.2-0.2,0.2h-1.7c-0.2,0-0.3,0.1-0.3,0.3V30c0,0.2,0.1,0.3,0.3,0.3h5.3
		c0.2,0,0.3-0.1,0.3-0.3v-0.9c0-0.2-0.1-0.3-0.3-0.3h-1.7c-0.1,0-0.2-0.1-0.2-0.2V16.4c0-0.2-0.1-0.3-0.3-0.3H394.1L394.1,16.1z
		 M402.5,10c-0.2,0-0.3,0.1-0.3,0.3v0.9c0,0.2,0.1,0.3,0.3,0.3h1.7c0.1,0,0.2,0.1,0.2,0.2v17c0,0.1-0.1,0.2-0.2,0.2h-1.7
		c-0.2,0-0.3,0.1-0.3,0.3V30c0,0.2,0.1,0.3,0.3,0.3h5.3c0.2,0,0.3-0.1,0.3-0.3v-0.9c0-0.2-0.1-0.3-0.3-0.3h-1.7
		c-0.1,0-0.2-0.1-0.2-0.2v-7.3c0-2.5,1.6-4,3.8-4c2.5,0,3.7,1.4,3.7,4.3v7c0,0.1-0.1,0.2-0.2,0.2h-1.7c-0.2,0-0.3,0.1-0.3,0.3V30
		c0,0.2,0.1,0.3,0.3,0.3h5.3c0.2,0,0.3-0.1,0.3-0.3v-0.9c0-0.2-0.1-0.3-0.3-0.3h-1.6c-0.1,0-0.2-0.1-0.2-0.2v-7.4
		c0-3.5-1.8-5.4-4.9-5.4c-2,0-3.4,0.9-4.1,2.3l0,0v-7.8c0-0.2-0.1-0.3-0.3-0.3H402.5L402.5,10z M425.7,15.8c-2.6,0-4.5,1.3-5.3,3.7
		c-0.3,0.9-0.4,1.9-0.4,3.7c0,1.7,0.1,2.8,0.4,3.7c0.8,2.5,2.7,3.8,5.5,3.8c2.4,0,4.1-1,5.2-2.4c0.1-0.1,0.1-0.3,0-0.4l-0.7-0.6
		c-0.1-0.1-0.3-0.1-0.4,0.1c-0.8,1-2.1,1.8-4,1.8c-2,0-3.4-0.9-4-2.8c-0.2-0.6-0.3-1.3-0.3-2.5c0-0.1,0.1-0.2,0.2-0.2h9.3
		c0.2,0,0.3-0.1,0.3-0.3c0-2-0.1-2.9-0.4-3.8C430.2,17.1,428.3,15.8,425.7,15.8L425.7,15.8z M425.7,17.3c1.9,0,3.3,0.9,3.8,2.7
		c0.2,0.6,0.3,1.2,0.3,2.1c0,0.1-0.1,0.2-0.2,0.2h-7.8c-0.1,0-0.2-0.1-0.2-0.2c0-0.9,0.1-1.5,0.3-2.1
		C422.4,18.1,423.8,17.3,425.7,17.3L425.7,17.3z M442,15.8c-2,0-3.3,1.2-3.9,2.6l0,0v-2.1c0-0.2-0.1-0.3-0.3-0.3h-3.2
		c-0.2,0-0.3,0.1-0.3,0.3v0.9c0,0.2,0.1,0.3,0.3,0.3h1.7c0.1,0,0.2,0.1,0.2,0.2v10.9c0,0.1-0.1,0.2-0.2,0.2h-1.7
		c-0.2,0-0.3,0.1-0.3,0.3V30c0,0.2,0.1,0.3,0.3,0.3h5.5c0.2,0,0.3-0.1,0.3-0.3v-0.9c0-0.2-0.1-0.3-0.3-0.3h-1.9
		c-0.1,0-0.2-0.1-0.2-0.2v-6.3c0-3.3,1.6-4.9,3.8-4.9c0.7,0,1.4,0.1,1.8,0.2c0.2,0.1,0.3-0.1,0.3-0.3v-1c0-0.2-0.1-0.3-0.3-0.3
		C443.4,15.9,442.9,15.8,442,15.8L442,15.8z M451.5,15.8c-1.7,0-3.3,0.4-4.5,1c-0.1,0.1-0.2,0.2-0.2,0.4v2.6c0,0.2,0.1,0.3,0.3,0.3
		h1c0.2,0,0.3-0.1,0.3-0.3V18c0-0.1,0-0.1,0.2-0.2c0.7-0.3,1.8-0.5,2.9-0.5c2.8,0,3.5,1,3.5,3.3V22c0,0.1-0.1,0.2-0.2,0.2h-3.5
		c-3.4,0-5.4,1.4-5.4,4.2s1.9,4.2,4.8,4.2c2.3,0,3.8-0.9,4.4-2.1l0,0V30c0,0.2,0.1,0.3,0.3,0.3h3.1c0.2,0,0.3-0.1,0.3-0.3v-0.9
		c0-0.2-0.1-0.3-0.3-0.3h-1.7c-0.1,0-0.2-0.1-0.2-0.2v-8.1C456.6,17,455.1,15.8,451.5,15.8L451.5,15.8z M454.8,23.5
		c0.1,0,0.2,0.1,0.2,0.2v2.2c0,2-1.6,3.2-4,3.2c-2.3,0-3.5-1-3.5-2.8c0-1.9,1.2-2.8,4-2.8L454.8,23.5L454.8,23.5z"/>
	<path class="st0" d="M334.1,39.6c-1.7,0-3.3,0.4-4.5,1c-0.1,0.1-0.2,0.2-0.2,0.4v2.6c0,0.2,0.1,0.3,0.3,0.3h1
		c0.2,0,0.3-0.1,0.3-0.3v-1.8c0-0.1,0-0.1,0.1-0.2c0.7-0.3,1.8-0.5,2.9-0.5c2.8,0,3.5,1,3.5,3.3v1.4c0,0.1-0.1,0.2-0.2,0.2h-3.5
		c-3.4,0-5.4,1.4-5.4,4.2s1.9,4.2,4.8,4.2c2.3,0,3.8-0.9,4.4-2.1l0,0v1.5c0,0.2,0.1,0.3,0.3,0.3h3.1c0.2,0,0.3-0.1,0.3-0.3V53
		c0-0.2-0.1-0.3-0.3-0.3h-1.7c-0.1,0-0.2-0.1-0.2-0.2v-8.1C339.2,40.8,337.7,39.6,334.1,39.6L334.1,39.6z M337.4,47.4
		c0.1,0,0.2,0.1,0.2,0.2v2.2c0,2-1.6,3.2-4,3.2c-2.3,0-3.5-1-3.5-2.8c0-1.9,1.2-2.8,4-2.8L337.4,47.4L337.4,47.4z M344.1,45.4
		c-0.2,0-0.3,0.1-0.3,0.3v0.9c0,0.2,0.1,0.3,0.3,0.3h7.6c0.2,0,0.3-0.1,0.3-0.3v-0.9c0-0.2-0.1-0.3-0.3-0.3H344.1L344.1,45.4z
		 M362.5,39.7c-2,0-3.3,1.2-3.9,2.6l0,0v-2.1c0-0.2-0.1-0.3-0.3-0.3h-3.2c-0.2,0-0.3,0.1-0.3,0.3v0.9c0,0.2,0.1,0.3,0.3,0.3h1.7
		c0.1,0,0.2,0.1,0.2,0.2v10.9c0,0.1-0.1,0.2-0.2,0.2h-1.7c-0.2,0-0.3,0.1-0.3,0.3v0.9c0,0.2,0.1,0.3,0.3,0.3h5.5
		c0.2,0,0.3-0.1,0.3-0.3V53c0-0.2-0.1-0.3-0.3-0.3h-1.9c-0.1,0-0.2-0.1-0.2-0.2v-6.3c0-3.3,1.6-4.9,3.8-4.9c0.7,0,1.4,0.1,1.8,0.2
		c0.2,0.1,0.3-0.1,0.3-0.3v-1c0-0.2-0.1-0.3-0.3-0.3C363.9,39.8,363.3,39.7,362.5,39.7L362.5,39.7z M372.9,39.6
		c-2.6,0-4.5,1.3-5.3,3.7c-0.3,1-0.5,2-0.5,3.7s0.2,2.8,0.5,3.7c0.8,2.4,2.7,3.7,5.3,3.7c2.6,0,4.6-1.3,5.3-3.7c0.3-1,0.5-2,0.5-3.7
		s-0.2-2.8-0.5-3.7C377.4,41,375.5,39.6,372.9,39.6L372.9,39.6z M372.9,41.2c1.9,0,3.2,1,3.8,2.7c0.3,0.8,0.4,1.7,0.4,3.2
		s-0.1,2.4-0.4,3.2c-0.6,1.7-1.9,2.7-3.8,2.7c-1.8,0-3.2-1-3.8-2.7c-0.3-0.8-0.4-1.7-0.4-3.2s0.1-2.4,0.4-3.2
		C369.7,42.1,371,41.2,372.9,41.2L372.9,41.2z M382,33.9c-0.2,0-0.3,0.1-0.3,0.3v0.9c0,0.2,0.1,0.3,0.3,0.3h1.7
		c0.1,0,0.2,0.1,0.2,0.2v17c0,0.1-0.1,0.2-0.2,0.2H382c-0.2,0-0.3,0.1-0.3,0.3V54c0,0.2,0.1,0.3,0.3,0.3h5.3c0.2,0,0.3-0.1,0.3-0.3
		v-1c0-0.2-0.1-0.3-0.3-0.3h-1.7c-0.1,0-0.2-0.1-0.2-0.2v-7.3c0-2.5,1.6-4,3.8-4c2.5,0,3.7,1.4,3.7,4.3v7c0,0.1-0.1,0.2-0.2,0.2H391
		c-0.2,0-0.3,0.1-0.3,0.3v0.9c0,0.2,0.1,0.3,0.3,0.3h5.3c0.2,0,0.3-0.1,0.3-0.3V53c0-0.2-0.1-0.3-0.3-0.3h-1.6
		c-0.1,0-0.2-0.1-0.2-0.2v-7.4c0-3.5-1.8-5.4-4.9-5.4c-2,0-3.4,0.9-4.1,2.3l0,0v-7.8c0-0.2-0.1-0.3-0.3-0.3L382,33.9L382,33.9z
		 M405.1,39.6c-2.6,0-4.5,1.3-5.3,3.7c-0.3,0.9-0.4,1.9-0.4,3.7c0,1.7,0.1,2.8,0.4,3.7c0.8,2.5,2.7,3.8,5.5,3.8c2.4,0,4.1-1,5.2-2.4
		c0.1-0.1,0.1-0.3,0-0.4l-0.7-0.6c-0.1-0.1-0.3-0.1-0.4,0.1c-0.8,1-2.1,1.8-4,1.8c-2,0-3.4-0.9-4-2.8c-0.2-0.6-0.3-1.3-0.3-2.5
		c0-0.1,0.1-0.2,0.2-0.2h9.3c0.2,0,0.3-0.1,0.3-0.3c0-2-0.1-2.9-0.4-3.8C409.7,40.9,407.7,39.6,405.1,39.6L405.1,39.6z M405.1,41.1
		c1.9,0,3.3,0.9,3.8,2.7c0.2,0.6,0.3,1.2,0.3,2.1c0,0.1-0.1,0.2-0.2,0.2h-7.8c-0.1,0-0.2-0.1-0.2-0.2c0-0.9,0.1-1.5,0.3-2.1
		C401.9,42,403.3,41.1,405.1,41.1L405.1,41.1z M427.4,39.6c-2.6,0-4.5,1.3-5.3,3.7c-0.3,1-0.5,2-0.5,3.7s0.2,2.8,0.5,3.7
		c0.8,2.4,2.7,3.7,5.3,3.7c2.6,0,4.6-1.3,5.3-3.7c0.3-1,0.5-2,0.5-3.7s-0.2-2.8-0.5-3.7C432,41,430,39.6,427.4,39.6L427.4,39.6z
		 M427.4,41.2c1.9,0,3.2,1,3.8,2.7c0.3,0.8,0.4,1.7,0.4,3.2s-0.1,2.4-0.4,3.2c-0.6,1.7-1.9,2.7-3.8,2.7c-1.8,0-3.2-1-3.8-2.7
		c-0.3-0.8-0.4-1.7-0.4-3.2s0.1-2.4,0.4-3.2C424.2,42.1,425.6,41.2,427.4,41.2L427.4,41.2z"/>
	<path class="st0" d="M239.6,16.6c1.8,0,3.3,0.5,4.3,1.5s1.5,2.6,1.5,4.8v15c0,2.2-0.5,3.8-1.5,4.8s-2.4,1.5-4.3,1.5h-5.7V16.6
		H239.6L239.6,16.6z M226.7,10.3v40.2h12.9c1.8,0,3.5-0.2,5.1-0.7s3-1.2,4.1-2.2c1.2-1,2.1-2.3,2.8-3.9s1-3.5,1-5.9v-15
		c0-2.3-0.3-4.3-1-5.9S250,14,248.8,13s-2.5-1.7-4.1-2.2s-3.3-0.7-5.1-0.7L226.7,10.3L226.7,10.3z"/>
	<path class="st0" d="M108.5,16.6c1.8,0,3.3,0.5,4.3,1.5s1.5,2.6,1.5,4.8v15c0,2.2-0.5,3.8-1.5,4.8s-2.4,1.5-4.3,1.5h-5.7V16.6
		H108.5L108.5,16.6z M95.6,10.3v40.2h12.9c1.8,0,3.5-0.2,5.1-0.7s2.9-1.2,4.1-2.2c1.2-1,2.1-2.3,2.8-3.9s1-3.5,1-5.9v-15
		c0-2.3-0.3-4.3-1-5.9s-1.6-2.9-2.8-3.9s-2.6-1.7-4.1-2.2c-1.6-0.5-3.3-0.7-5.1-0.7L95.6,10.3L95.6,10.3z"/>
	<path class="st0" d="M296.8,10.4h-3v23.9l-11.4-19.4l-0.9-1.5l-0.5-0.8l-0.1-0.2l0,0c-0.7-1.1-1.8-1.9-3.5-2h-3v36.2
		c0.1,2.4,1.8,3.8,3.8,4h3.4V26.5l11.7,19.9l0.3,0.5l0.3,0.6l0.3,0.6l0.1,0.2v0.1l0,0c0.7,1.3,1.9,2,3.3,2.1h3.4v-36
		C300.9,12.3,299.5,10.4,296.8,10.4"/>
	<path class="st0" d="M184.9,10.4h-3v23.9l-11.4-19.4l-0.9-1.5l-0.5-0.8l-0.1-0.2l0,0c-0.7-1.1-1.8-1.9-3.5-2h-3v36.2
		c0.1,2.4,1.8,3.8,3.8,4h3.4V26.5l11.7,19.9l0.3,0.5l0.3,0.6l0.3,0.6l0.1,0.2l0.1,0.1l0,0c0.7,1.3,1.9,2,3.3,2.1h3.4v-36
		C189,12.3,187.6,10.4,184.9,10.4"/>
	<path class="st0" d="M262.8,10.4h-3v36.2c0.1,2.4,1.8,3.8,3.8,4h3.4V14.5C266.9,12.3,265.5,10.4,262.8,10.4"/>
	<path class="st0" d="M148.7,10c-0.4,0-0.6,0-0.7,0v2.2l0,0V38c0,2.2-0.5,3.8-1.6,4.8s-2.6,1.5-4.5,1.5s-3.4-0.5-4.5-1.5
		s-1.6-2.6-1.6-4.8V16.4c0-3.4-2.2-6.3-6.3-6.4h-0.9v2.2l0,0V38c0,2.3,0.3,4.3,1,5.9c0.7,1.6,1.6,2.9,2.8,3.9s2.6,1.7,4.2,2.2
		c1.6,0.5,3.3,0.7,5.2,0.7c1.8,0,3.6-0.2,5.2-0.7s3-1.2,4.2-2.2s2.1-2.3,2.8-3.9c0.7-1.6,1-3.5,1-5.9V16.2
		C155,12.8,152.8,10,148.7,10"/>
	<path class="st0" d="M210.1,16.4c0.4,0,0.6,0,0.8,0h6.3c0.7,0,1.3-0.3,1.7-1c0.4-0.6,0.6-1.4,0.6-2.2l0,0c0-0.7-0.2-1.4-0.5-2.1
		c-0.4-0.7-0.9-1-1.7-1h-14.4c-4.1,0.1-6.3,3-6.3,6.5l0,0v27.2c0,0.1,0,0.2,0,0.4c0,4.1,2.8,6.4,6.3,6.5h14.4c0.8,0,1.4-0.3,1.7-1
		c0.4-0.7,0.5-1.4,0.5-2.1l0,0c0-0.9-0.2-1.6-0.6-2.2c-0.4-0.6-1-1-1.7-1h-7.5c-3.2-0.2-5.8,0.9-6-3v-8.2h8.4c0.8,0,1.4-0.3,1.7-0.9
		c0.4-0.6,0.6-1.2,0.6-1.9c0-0.7-0.2-1.4-0.6-2c-0.4-0.6-1-0.9-1.7-0.9h-8.4V19C203.9,15.8,206,16.4,210.1,16.4"/>
	<path class="st0" d="M299.7,83.3c0.3,0,0.5-0.1,0.7-0.4s0.2-0.5,0.2-0.8s-0.1-0.6-0.2-0.8c-0.1-0.3-0.4-0.4-0.7-0.4h-8.8V60.6
		c0-0.3-0.1-0.6-0.4-0.7s-0.6-0.2-0.9-0.2s-0.7,0.1-0.9,0.2c-0.3,0.1-0.4,0.4-0.4,0.7v21.7c0,0.3,0.1,0.6,0.4,0.7s0.5,0.2,0.8,0.2
		h10.2V83.3z M277.6,82.4c0,0.3,0.1,0.6,0.4,0.7s0.6,0.2,0.9,0.2s0.7-0.1,0.9-0.2s0.4-0.4,0.4-0.7V60.6c0-0.3-0.1-0.6-0.4-0.7
		s-0.6-0.2-0.9-0.2s-0.7,0.1-0.9,0.2c-0.3,0.1-0.4,0.4-0.4,0.7V82.4L277.6,82.4z M269.5,66.8c0.5,0,0.8-0.1,1-0.3
		c0.2-0.2,0.3-0.6,0.3-1.2c0-0.8-0.2-1.5-0.5-2.2s-0.8-1.3-1.4-1.8s-1.3-0.9-2.2-1.2c-0.9-0.3-1.8-0.4-2.9-0.4c-1,0-1.8,0.1-2.7,0.4
		s-1.6,0.6-2.2,1.2c-0.6,0.6-1.1,1.3-1.5,2.2c-0.4,0.9-0.5,2-0.5,3.3v9.7c0,1.3,0.2,2.4,0.5,3.3c0.4,0.9,0.9,1.6,1.5,2.2
		s1.4,1,2.2,1.2c0.8,0.3,1.7,0.4,2.7,0.4c1.1,0,2-0.1,2.9-0.4s1.6-0.7,2.2-1.2s1.1-1.1,1.4-1.8c0.3-0.7,0.5-1.5,0.5-2.3
		c0-0.6-0.1-1-0.3-1.2c-0.2-0.2-0.6-0.3-1-0.3c-0.8,0-1.3,0.3-1.4,0.9c0,0.4-0.1,0.8-0.2,1.3c-0.1,0.4-0.3,0.9-0.6,1.2
		c-0.3,0.4-0.7,0.7-1.2,1s-1.2,0.4-2.1,0.4c-1.5,0-2.5-0.4-3.3-1.1c-0.7-0.7-1.1-1.9-1.1-3.5v-9.7c0-1.6,0.4-2.7,1.1-3.5
		c0.7-0.7,1.8-1.1,3.2-1.1c0.9,0,1.6,0.1,2.2,0.4s1,0.6,1.3,1s0.5,0.8,0.6,1.2c0.1,0.4,0.2,0.8,0.2,1.1
		C268.2,66.5,268.7,66.8,269.5,66.8 M248.9,83.1c0.3-0.2,0.4-0.4,0.4-0.7V60.6c0-0.3-0.1-0.6-0.4-0.7s-0.6-0.2-0.9-0.2
		s-0.7,0.1-0.9,0.2c-0.3,0.1-0.4,0.4-0.4,0.7v16.5l-8-15.8c-0.3-0.6-0.6-1-0.9-1.3s-0.7-0.4-1.2-0.4c-0.4,0-0.7,0.1-1,0.2
		c-0.3,0.1-0.4,0.4-0.4,0.7v21.7c0,0.3,0.1,0.6,0.4,0.7s0.6,0.2,0.9,0.2s0.7-0.1,0.9-0.2s0.4-0.4,0.4-0.7V65.8l8.4,16.3
		c0.2,0.4,0.4,0.7,0.7,0.9s0.6,0.3,1,0.3C248.3,83.3,248.7,83.3,248.9,83.1 M224.7,76.5c0,1.6-0.4,2.7-1.2,3.5
		c-0.8,0.7-1.8,1.1-3.2,1.1s-2.4-0.4-3.2-1.1s-1.1-1.9-1.1-3.5V60.6c0-0.3-0.1-0.6-0.4-0.7s-0.6-0.2-0.9-0.2s-0.7,0.1-0.9,0.2
		c-0.3,0.1-0.4,0.4-0.4,0.7v15.9c0,1.3,0.2,2.4,0.5,3.3c0.4,0.9,0.9,1.6,1.5,2.2s1.4,1,2.2,1.2c0.9,0.3,1.8,0.4,2.8,0.4
		s1.9-0.1,2.8-0.4s1.6-0.6,2.3-1.2s1.1-1.3,1.5-2.2c0.4-0.9,0.5-2,0.5-3.3V60.6c0-0.3-0.1-0.6-0.4-0.7s-0.6-0.2-0.9-0.2
		c-0.4,0-0.7,0.1-1,0.2c-0.3,0.1-0.4,0.4-0.4,0.7L224.7,76.5L224.7,76.5z M203.1,76.5c0,1.6-0.4,2.7-1.1,3.5
		c-0.8,0.7-1.8,1.1-3.1,1.1s-2.4-0.4-3.1-1.1c-0.7-0.7-1.1-1.9-1.1-3.5v-9.7c0-1.6,0.4-2.7,1.1-3.5c0.7-0.7,1.8-1.1,3.1-1.1
		s2.4,0.4,3.1,1.1c0.8,0.7,1.1,1.9,1.1,3.5V76.5L203.1,76.5z M201.5,83.2c0.9-0.3,1.6-0.6,2.2-1.2c0.6-0.6,1.1-1.3,1.5-2.2
		c0.4-0.9,0.5-2,0.5-3.3v-9.7c0-1.3-0.2-2.4-0.5-3.3c-0.4-0.9-0.9-1.6-1.5-2.2c-0.6-0.6-1.4-1-2.2-1.2s-1.8-0.4-2.7-0.4
		s-1.9,0.1-2.7,0.4s-1.6,0.6-2.2,1.2c-0.6,0.6-1.1,1.3-1.5,2.2c-0.4,0.9-0.5,2-0.5,3.3v9.7c0,1.3,0.2,2.4,0.5,3.3
		c0.4,0.9,0.9,1.6,1.5,2.2s1.4,1,2.2,1.2s1.8,0.4,2.7,0.4C199.8,83.5,200.7,83.4,201.5,83.2 M184,66.8c0.4,0,0.8-0.1,1-0.3
		c0.2-0.2,0.3-0.6,0.3-1.2c0-0.8-0.2-1.5-0.5-2.2s-0.8-1.3-1.4-1.8s-1.3-0.9-2.2-1.2s-1.8-0.4-2.9-0.4c-0.9,0-1.8,0.1-2.7,0.4
		s-1.6,0.6-2.2,1.2s-1.1,1.3-1.5,2.2c-0.4,0.9-0.6,2-0.6,3.3v9.7c0,1.3,0.2,2.4,0.6,3.3c0.4,0.9,0.9,1.6,1.5,2.2s1.4,1,2.2,1.2
		s1.7,0.4,2.7,0.4c1.1,0,2.1-0.1,2.9-0.4c0.9-0.3,1.6-0.7,2.2-1.2c0.6-0.5,1.1-1.1,1.4-1.8c0.3-0.7,0.5-1.5,0.5-2.3
		c0-0.6-0.1-1-0.3-1.2s-0.6-0.3-1-0.3c-0.8,0-1.3,0.3-1.4,0.9c0,0.4-0.1,0.8-0.2,1.3c-0.1,0.4-0.3,0.9-0.6,1.2
		c-0.3,0.4-0.7,0.7-1.2,1s-1.2,0.4-2.1,0.4c-1.4,0-2.5-0.4-3.3-1.1c-0.7-0.7-1.1-1.9-1.1-3.5v-9.7c0-1.6,0.4-2.7,1.1-3.5
		c0.7-0.7,1.8-1.1,3.2-1.1c0.9,0,1.6,0.1,2.2,0.4c0.6,0.3,1,0.6,1.3,1s0.5,0.8,0.6,1.2c0.1,0.4,0.2,0.8,0.2,1.1
		C182.7,66.5,183.2,66.8,184,66.8"/>
	<path class="st0" d="M151.2,82.4c0,0.3,0.1,0.6,0.4,0.7s0.6,0.2,0.9,0.2s0.7-0.1,0.9-0.2s0.4-0.4,0.4-0.7v-8.2c0-0.1,0-0.3,0.1-0.3
		l6.7-12.5c0.1-0.2,0.1-0.4,0.1-0.5c0-0.3-0.2-0.6-0.5-0.8c-0.4-0.2-0.7-0.3-1.1-0.3c-0.4,0-0.7,0.2-1,0.7l-5.7,11.1l-5.7-11.1
		c-0.1-0.2-0.3-0.4-0.4-0.5s-0.3-0.2-0.6-0.2c-0.4,0-0.7,0.1-1.1,0.3c-0.4,0.2-0.6,0.5-0.6,0.8c0,0.2,0,0.4,0.1,0.5l6.7,12.5
		c0.1,0.1,0.1,0.2,0.1,0.3L151.2,82.4L151.2,82.4z M125.9,59.7c-0.3,0-0.6,0.1-0.7,0.4c-0.2,0.3-0.2,0.5-0.2,0.8
		c0,0.4,0.1,0.6,0.3,0.9s0.4,0.4,0.7,0.4h5.2v20.1c0,0.3,0.1,0.6,0.4,0.7s0.6,0.2,0.9,0.2s0.7-0.1,0.9-0.2s0.4-0.4,0.4-0.7V62.2h5.2
		c0.3,0,0.6-0.1,0.7-0.4c0.2-0.3,0.2-0.6,0.2-0.9c0-0.3-0.1-0.6-0.2-0.8s-0.4-0.4-0.7-0.4L125.9,59.7L125.9,59.7z M116.3,82.4
		c0,0.3,0.1,0.6,0.4,0.7s0.6,0.2,0.9,0.2s0.7-0.1,0.9-0.2s0.4-0.4,0.4-0.7V60.6c0-0.3-0.1-0.6-0.4-0.7s-0.6-0.2-0.9-0.2
		s-0.7,0.1-0.9,0.2c-0.3,0.1-0.4,0.4-0.4,0.7V82.4L116.3,82.4z M108.2,66.8c0.4,0,0.8-0.1,1-0.3c0.2-0.2,0.3-0.6,0.3-1.2
		c0-0.8-0.2-1.5-0.5-2.2s-0.8-1.3-1.4-1.8s-1.3-0.9-2.2-1.2s-1.8-0.4-2.9-0.4c-0.9,0-1.8,0.1-2.7,0.4s-1.6,0.6-2.2,1.2
		s-1.1,1.3-1.5,2.2c-0.4,0.9-0.6,2-0.6,3.3v9.7c0,1.3,0.2,2.4,0.6,3.3s0.9,1.6,1.5,2.2s1.4,1,2.2,1.2s1.7,0.4,2.7,0.4
		c1.1,0,2.1-0.1,2.9-0.4c0.9-0.3,1.6-0.7,2.2-1.2s1.1-1.1,1.4-1.8c0.3-0.7,0.5-1.5,0.5-2.3c0-0.6-0.1-1-0.3-1.2
		c-0.2-0.2-0.6-0.3-1-0.3c-0.8,0-1.3,0.3-1.4,0.9c0,0.4-0.1,0.8-0.2,1.3c-0.1,0.4-0.3,0.9-0.6,1.2c-0.3,0.4-0.7,0.7-1.2,1
		s-1.2,0.4-2.1,0.4c-1.4,0-2.5-0.4-3.3-1.1c-0.7-0.7-1.1-1.9-1.1-3.5v-9.7c0-1.6,0.4-2.7,1.1-3.5c0.7-0.7,1.8-1.1,3.2-1.1
		c0.9,0,1.6,0.1,2.2,0.4c0.6,0.3,1,0.6,1.3,1s0.5,0.8,0.6,1.2c0.1,0.4,0.2,0.8,0.2,1.1C106.9,66.5,107.3,66.8,108.2,66.8"/>
	<polygon class="st1" points="45.2,50.6 37.9,50.6 37.9,43.3 45.2,43.3 	"/>
	<polygon class="st1" points="26.9,43.3 26.9,50.6 30.6,54.3 34.3,50.6 34.3,43.3 30.6,39.7 	"/>
	<polygon class="st1" points="45.2,54.3 37.9,54.3 34.3,57.9 37.9,61.6 45.2,61.6 48.9,57.9 	"/>
	<polygon class="st1" points="45.2,32.3 37.9,32.3 34.3,36 37.9,39.7 45.2,39.7 48.9,36 	"/>
	<polygon class="st1" points="67.2,50.6 59.8,50.6 59.8,43.3 67.2,43.3 	"/>
	<polygon class="st1" points="70.8,43.3 70.8,50.6 74.5,54.3 78.1,50.6 78.1,43.3 74.5,39.7 	"/>
	<polygon class="st1" points="48.9,43.3 48.9,50.6 52.5,54.3 56.2,50.6 56.2,43.3 52.5,39.7 	"/>
	<polygon class="st1" points="67.2,54.3 59.8,54.3 56.2,57.9 59.8,61.6 67.2,61.6 70.8,57.9 	"/>
	<polygon class="st1" points="67.2,32.3 59.8,32.3 56.2,36 59.8,39.7 67.2,39.7 70.8,36 	"/>
	<polygon class="st1" points="23.3,50.6 16,50.6 16,43.3 23.3,43.3 	"/>
	<polygon class="st1" points="5,43.3 5,50.6 8.7,54.3 12.3,50.6 12.3,43.3 8.7,39.7 	"/>
	<polygon class="st1" points="23.3,54.3 16,54.3 12.3,57.9 16,61.6 23.3,61.6 26.9,57.9 	"/>
	<polygon class="st1" points="23.3,32.3 16,32.3 12.3,36 16,39.7 23.3,39.7 26.9,36 	"/>
	<polygon class="st1" points="45.2,28.7 37.9,28.7 37.9,21.4 45.2,21.4 	"/>
	<polygon class="st1" points="48.9,21.4 48.9,28.7 52.5,32.3 56.2,28.7 56.2,21.4 52.5,17.7 	"/>
	<polygon class="st1" points="26.9,21.4 26.9,28.7 30.6,32.3 34.3,28.7 34.3,21.4 30.6,17.7 	"/>
	<polygon class="st1" points="45.2,10.4 37.9,10.4 34.3,14.1 37.9,17.7 45.2,17.7 48.9,14.1 	"/>
	<polygon class="st1" points="45.2,72.6 37.9,72.6 37.9,65.3 45.2,65.3 	"/>
	<polygon class="st1" points="26.9,65.3 26.9,72.6 30.6,76.2 34.3,72.6 34.3,65.3 30.6,61.6 	"/>
	<polygon class="st1" points="45.2,76.2 37.9,76.2 34.3,79.9 37.9,83.5 45.2,83.5 48.9,79.9 	"/>
	<polygon class="st1" points="48.9,65.3 48.9,72.6 52.5,76.2 56.2,72.6 56.2,65.3 52.5,61.6 	"/>
	<polygon class="st1" points="59.8,28.7 63.5,28.7 59.8,25 	"/>
	<polygon class="st1" points="23.3,28.7 19.6,28.7 23.3,25 	"/>
	<polygon class="st1" points="23.3,68.9 19.6,65.3 23.3,65.3 	"/>
	<polygon class="st1" points="59.8,68.9 59.8,65.3 63.5,65.3 	"/>
	<path class="st1" d="M315.6,83.5c-0.8,0-1.5-0.6-1.5-1.4V11.8c0-0.8,0.7-1.4,1.5-1.4s1.5,0.6,1.5,1.4v70.4
		C317,82.9,316.4,83.5,315.6,83.5L315.6,83.5z"/>
</g>
</svg>
