<?xml version="1.0" encoding="utf-8"?>
<!-- Generator: Adobe Illustrator 23.0.2, SVG Export Plug-In . SVG Version: 6.00 Build 0)  -->
<svg version="1.1" id="Layer_1" xmlns="http://www.w3.org/2000/svg" xmlns:xlink="http://www.w3.org/1999/xlink" x="0px" y="0px"
	 viewBox="0 0 342.99 141.73" style="enable-background:new 0 0 342.99 141.73;" xml:space="preserve">
<style type="text/css">
	.st0{fill:#FFFFFF;}
	.st1{fill:#F58220;}
	.st2{fill:none;}
	.st3{fill:#2B296D;}
	.st4{fill:#FFF3D8;}
</style>
<g>
	<g>
		<path class="st0" d="M334.28,137.82H9.7c-2.96,0-5.37-2.4-5.37-5.37V9.02c0-2.96,2.4-5.37,5.37-5.37h324.58
			c2.96,0,5.37,2.4,5.37,5.37v123.43C339.64,135.41,337.24,137.82,334.28,137.82z"/>
		<path class="st0" d="M334.28,141.6H9.7c-5.05,0-9.15-4.11-9.15-9.15V9.02c0-5.05,4.11-9.15,9.15-9.15h324.58
			c5.05,0,9.15,4.11,9.15,9.15v123.43C343.43,137.5,339.32,141.6,334.28,141.6z M9.7,7.44c-0.87,0-1.58,0.71-1.58,1.58v123.43
			c0,0.87,0.71,1.58,1.58,1.58h324.58c0.87,0,1.58-0.71,1.58-1.58V9.02c0-0.87-0.71-1.58-1.58-1.58H9.7z"/>
	</g>
	<path class="st1" d="M334.36,137.82H9.7c-2.96,0-5.37-2.4-5.37-5.37V9.02c0-2.96,2.4-5.37,5.37-5.37h324.67
		c2.96,0,5.37,2.4,5.37,5.37v123.43C339.73,135.41,337.33,137.82,334.36,137.82z"/>
	<path class="st2" d="M334.64,137.82H10.06c-2.96,0-5.37-2.4-5.37-5.37V9.02c0-2.96,2.4-5.37,5.37-5.37h324.58
		c2.96,0,5.37,2.4,5.37,5.37v123.43C340.01,135.41,337.61,137.82,334.64,137.82z"/>
	<path class="st3" d="M124.03,137.81h210.61c2.96,0,5.37-2.4,5.37-5.37V9.02c0-2.96-2.4-5.37-5.37-5.37h-99.36L124.03,137.81z"/>
	<g>
		<g>
			<g>
				<g>
					<g>
						<g>
							<path class="st0" d="M17.06,55.16l9.33,0l0,30.36l12.57,0l0,8.15l-21.9,0L17.06,55.16z"/>
							<path class="st0" d="M39.41,80.44c0-8.1,6.46-13.82,14.07-13.82c7.65,0,14.07,5.73,14.07,13.82c0,8.1-6.42,13.82-14.07,13.82
								C45.87,94.26,39.41,88.53,39.41,80.44z M59.05,80.44c0-3.51-2.71-5.83-5.58-5.82c-2.86,0-5.58,2.32-5.58,5.83
								c0,3.5,2.72,5.82,5.58,5.82C56.34,86.26,59.05,83.94,59.05,80.44z"/>
							<path class="st0" d="M72.62,93.67l0-18.66l-5.08,0l0-7.81l5.08,0l0-8.59l9.08,0l0,8.59l4.84,0l0,7.8l-4.84,0l0,18.66
								L72.62,93.67z"/>
							<path class="st0" d="M92.09,93.67l0-18.66l-5.09,0l0-0.49l5.08-7.45l0-8.44l9.08,0l0,8.59l4.84,0l0,7.8l-4.84,0l0,18.66
								L92.09,93.67z"/>
							<path class="st0" d="M105.87,80.44c0-8.1,6.47-13.83,14.07-13.83c7.65,0,14.07,5.73,14.07,13.82
								c0,8.1-6.42,13.82-14.07,13.82C112.34,94.26,105.87,88.53,105.87,80.44z M125.52,80.44c0-3.51-2.71-5.83-5.58-5.82
								c-2.86,0-5.58,2.32-5.58,5.82c0,3.5,2.72,5.82,5.58,5.83C122.8,86.26,125.52,83.94,125.52,80.44z"/>
						</g>
						<g>
							<g>
								<path class="st4" d="M22.47,101.07l0-4.59l1.84,0l0,7.88l-1.18,0l-4.2-4.5l0,4.49l-1.84,0l0-7.88l1.24,0L22.47,101.07z"/>
								<path class="st4" d="M24.79,101.64c0-1.68,1.34-2.83,2.88-2.83c1.78,0,2.73,1.29,2.73,2.87l0,0.35l-3.85,0
									c0.15,0.62,0.68,0.91,1.18,0.91c0.52,0,0.89-0.18,1.18-0.56l1.25,0.9c-0.52,0.77-1.42,1.18-2.43,1.18
									C26.13,104.47,24.79,103.3,24.79,101.64z M26.57,101.17l2.12,0c-0.06-0.47-0.43-0.83-1.02-0.83
									C27.18,100.34,26.73,100.62,26.57,101.17z"/>
								<path class="st4" d="M36.11,101.54l1.01-2.6l1.91,0l-2.34,5.41l-1.06,0l-1.06-2.73l-1.06,2.73l-1.06,0l-2.34-5.41l2,0
									l1.02,2.61l1.01-2.61l0.96,0L36.11,101.54z"/>
								<path class="st4" d="M41.61,98.14l0-1.67l6.42,0l0,0.1l-3.64,6.11l3.62,0l0,1.67l-6.53,0l0-0.1l3.65-6.11L41.61,98.14z"/>
								<path class="st4" d="M48.15,101.65c0-1.68,1.34-2.83,2.88-2.83c1.78,0,2.73,1.29,2.73,2.87l0,0.35l-3.85,0
									c0.15,0.62,0.68,0.91,1.18,0.91c0.51,0,0.89-0.18,1.18-0.56l1.25,0.9c-0.53,0.77-1.43,1.18-2.43,1.18
									C49.49,104.47,48.15,103.3,48.15,101.65z M49.92,101.17l2.12,0c-0.06-0.47-0.44-0.83-1.02-0.83
									C50.54,100.34,50.09,100.62,49.92,101.17z"/>
								<path class="st4" d="M60.06,104.47l-0.1,0l-1.19-0.79c-0.38,0.42-1.02,0.79-1.85,0.79c-1.47,0-2.79-1.17-2.79-2.83
									c0-1.66,1.31-2.83,2.79-2.83c0.83,0,1.46,0.36,1.85,0.79l1.19-0.79l0.1,0L60.06,104.47z M57.11,100.44
									c-0.59,0-1.14,0.47-1.14,1.2c0,0.73,0.55,1.2,1.14,1.2c0.6,0,1.15-0.48,1.15-1.2C58.26,100.92,57.71,100.44,57.11,100.44z"
									/>
								<path class="st4" d="M62.67,96.48l0,7.88l-1.86,0l0-7.88L62.67,96.48z"/>
								<path class="st4" d="M69.08,104.47l-0.1,0l-1.19-0.79c-0.38,0.42-1.02,0.79-1.85,0.79c-1.47,0-2.79-1.17-2.79-2.83
									c0-1.66,1.31-2.83,2.79-2.83c0.83,0,1.46,0.36,1.85,0.79l1.19-0.79l0.1,0L69.08,104.47z M66.13,100.44
									c-0.59,0-1.14,0.48-1.14,1.2c0,0.73,0.56,1.2,1.14,1.2c0.6,0,1.15-0.48,1.15-1.2C67.28,100.92,66.72,100.44,66.13,100.44z"
									/>
								<path class="st4" d="M72.56,100.48c-0.54,0-0.87,0.41-0.87,1.07l0,2.8l-1.86,0l0-5.53l0.1,0l1.17,0.79
									c0.37-0.41,0.99-0.79,1.76-0.79c1.39,0,2.39,0.85,2.4,2.46l0,3.07l-1.86,0l0-2.81C73.4,100.91,73.1,100.48,72.56,100.48z"/>
								<path class="st4" d="M79.76,96.47l1.86,0l0,8l-0.1,0l-1.18-0.79c-0.39,0.42-1.02,0.79-1.86,0.79
									c-1.47,0-2.78-1.17-2.78-2.83c0-1.66,1.22-2.83,2.63-2.83c0.66,0,1.11,0.21,1.43,0.53L79.76,96.47z M77.53,101.64
									c0,0.73,0.56,1.2,1.14,1.2c0.59,0,1.14-0.48,1.14-1.2c0-0.74-0.56-1.2-1.14-1.2C78.09,100.44,77.53,100.91,77.53,101.64z"/>
							</g>
						</g>
					</g>
				</g>
			</g>
		</g>
		<polygon class="st3" points="134.44,57.44 125.28,65.4 122.97,53.5 		"/>
	</g>
	<g>
		<path class="st3" d="M21.23,40.5c1.25,0.33,2.13,1.1,2.13,2.46c0,1.75-1.46,2.86-3.3,2.86c-1.48,0-2.68-0.54-3.6-1.45l1.03-1.55
			c0.85,0.79,1.58,1.18,2.52,1.18c0.67,0,1.11-0.35,1.11-0.87c0-0.37-0.24-0.62-0.76-0.77l-1.54-0.41
			c-1.07-0.27-1.94-1.11-1.94-2.44c0-1.59,1.24-2.8,3.17-2.8c1.33,0,2.26,0.42,3.18,1.2l-1.01,1.53c-0.78-0.58-1.38-0.91-2.13-0.91
			c-0.61,0-1,0.33-1,0.83c0,0.4,0.25,0.62,0.68,0.75L21.23,40.5z"/>
		<path class="st3" d="M26.13,42.77c0,0.7,0.29,1.18,0.92,1.18c0.6,0,0.95-0.48,0.95-1.21V39.6h2.09v6.22h-0.11l-1.33-0.89
			c-0.42,0.47-1.11,0.89-1.96,0.89c-1.57,0-2.65-0.95-2.65-2.77V39.6h2.09V42.77z"/>
		<path class="st3" d="M31.09,48.18v-8.72h0.11l1.33,0.89c0.44-0.48,1.15-0.89,2.09-0.89c1.66,0,3.12,1.32,3.12,3.18
			c0,1.86-1.37,3.18-2.95,3.18c-0.75,0-1.25-0.24-1.61-0.59v2.95H31.09z M34.4,41.29c-0.66,0-1.28,0.53-1.28,1.35
			c0,0.83,0.62,1.35,1.28,1.35c0.66,0,1.28-0.53,1.28-1.35C35.68,41.82,35.05,41.29,34.4,41.29z"/>
		<path class="st3" d="M38.43,48.18v-8.72h0.11l1.33,0.89c0.44-0.48,1.15-0.89,2.09-0.89c1.66,0,3.12,1.32,3.12,3.18
			c0,1.86-1.37,3.18-2.95,3.18c-0.75,0-1.25-0.24-1.61-0.59v2.95H38.43z M41.73,41.29c-0.66,0-1.28,0.53-1.28,1.35
			c0,0.83,0.62,1.35,1.28,1.35c0.66,0,1.28-0.53,1.28-1.35C43.02,41.82,42.39,41.29,41.73,41.29z"/>
		<path class="st3" d="M45.52,42.64c0-1.86,1.49-3.18,3.24-3.18c1.75,0,3.24,1.32,3.24,3.18c0,1.86-1.49,3.18-3.24,3.18
			C47,45.82,45.52,44.5,45.52,42.64z M50.04,42.64c0-0.81-0.62-1.34-1.28-1.34c-0.66,0-1.28,0.53-1.28,1.34
			c0,0.81,0.62,1.34,1.28,1.34C49.41,43.98,50.04,43.45,50.04,42.64z"/>
		<path class="st3" d="M56.36,41.59c-0.78-0.2-1.6,0.14-1.6,1.17v2.93h-2.09v-6.22h0.11l1.32,0.89c0.39-0.48,1.21-0.99,2.26-0.89
			V41.59z"/>
		<path class="st3" d="M57.64,45.68v-4.29h-1.06v-0.11l1.06-1.83v-1.83h2.09v1.98h1.11v1.79h-1.11v4.29H57.64z"/>
		<path class="st3" d="M61.11,42.64c0-1.88,1.51-3.18,3.24-3.18c2,0,3.07,1.45,3.07,3.22v0.52h-4.29c0.2,0.6,0.75,0.9,1.28,0.9
			c0.59,0,1.01-0.2,1.34-0.62l1.41,1.01c-0.59,0.86-1.6,1.33-2.75,1.33C62.62,45.82,61.11,44.52,61.11,42.64z M63.13,42.01h2.35
			c-0.07-0.45-0.49-0.87-1.14-0.87C63.83,41.13,63.34,41.44,63.13,42.01z"/>
		<path class="st3" d="M72.36,36.83h2.09v8.99h-0.11L73,44.93c-0.44,0.48-1.15,0.89-2.09,0.89c-1.66,0-3.12-1.32-3.12-3.18
			c0-1.86,1.37-3.18,2.95-3.18c0.75,0,1.25,0.24,1.61,0.59V36.83z M69.86,42.64c0,0.82,0.62,1.35,1.28,1.35
			c0.66,0,1.28-0.53,1.28-1.35c0-0.83-0.62-1.35-1.28-1.35C70.48,41.29,69.86,41.81,69.86,42.64z"/>
		<path class="st3" d="M80.44,40.05c0.36-0.35,0.86-0.59,1.61-0.59c1.58,0,2.95,1.32,2.95,3.18c0,1.86-1.46,3.18-3.12,3.18
			c-0.94,0-1.65-0.41-2.09-0.89l-1.33,0.89h-0.11v-8.99h2.09V40.05z M81.66,41.29c-0.66,0-1.28,0.52-1.28,1.35
			c0,0.82,0.62,1.35,1.28,1.35c0.66,0,1.28-0.53,1.28-1.35C82.94,41.81,82.32,41.29,81.66,41.29z"/>
		<path class="st3" d="M85.94,48.18l1.35-3.02l-2.53-5.56h2.27l1.36,3.11l1.38-3.11h2.13l-3.84,8.58H85.94z"/>
	</g>
	<g>
		<path class="st0" d="M238.76,67l-0.02-8.52l3.41-0.01l0.03,14.6l-2.19,0l-7.8-8.31l0.02,8.33l-3.41,0.01l-0.03-14.6l2.3,0
			L238.76,67z"/>
		<path class="st0" d="M243.62,61.56l-0.01-3.09l11.91-0.02v0.19l-6.71,11.34l6.72-0.01l0.01,3.09l-12.11,0.02v-0.19l6.75-11.34
			L243.62,61.56z"/>
		<path class="st0" d="M261.79,58.43l3.54-0.01l0.02,11.51l5.2-0.01l0.01,3.09l-8.74,0.02L261.79,58.43z"/>
		<path class="st0" d="M271.29,68c-0.01-3.07,2.44-5.25,5.32-5.25c2.88-0.01,5.34,2.16,5.35,5.23s-2.44,5.25-5.32,5.25
			C273.75,73.23,271.29,71.07,271.29,68z M278.74,67.98c0-1.33-1.03-2.21-2.12-2.2c-1.09,0-2.11,0.88-2.11,2.21
			c0,1.33,1.03,2.21,2.12,2.2C277.71,70.19,278.74,69.31,278.74,67.98z"/>
		<path class="st0" d="M284.07,72.99l-0.01-7.08l-1.74,0v-0.19l1.73-3.02l-0.01-3.01l3.44-0.01l0.01,3.26l1.83,0l0.01,2.96l-1.83,0
			l0.01,7.08L284.07,72.99z"/>
		<path class="st0" d="M291.37,72.97l-0.01-7.08l-1.74,0v-0.19l1.73-3.02l-0.01-3.01l3.44-0.01l0.01,3.26l1.83,0l0.01,2.96l-1.83,0
			l0.01,7.08L291.37,72.97z"/>
		<path class="st0" d="M297.09,67.94c-0.01-3.11,2.48-5.25,5.32-5.25c3.29-0.01,5.06,2.38,5.07,5.31l0,0.86l-7.08,0.01
			c0.34,0.99,1.24,1.48,2.12,1.47c0.97,0,1.66-0.34,2.21-1.03l2.32,1.66c-0.97,1.42-2.63,2.2-4.52,2.2
			C299.59,73.18,297.1,71.03,297.09,67.94z M300.42,66.89l3.87-0.01c-0.11-0.75-0.81-1.44-1.87-1.44
			C301.56,65.45,300.75,65.95,300.42,66.89z"/>
		<path class="st0" d="M314.69,66.17c-1.29-0.33-2.64,0.23-2.64,1.93l0.01,4.83l-3.44,0.01l-0.02-10.26l0.19,0l2.18,1.45
			c0.63-0.79,2-1.63,3.72-1.47L314.69,66.17z"/>
		<path class="st0" d="M317.07,77.04l2.22-4.98l-4.19-9.16l3.74-0.01l2.26,5.12l2.27-5.13l3.52-0.01l-6.3,14.17L317.07,77.04z"/>
		<path class="st0" d="M216.56,92.71c-1.01,1.07-2.67,1.58-4.17,1.58c-4.17,0.01-7.49-3.35-7.5-7.51c-0.01-4.16,3.35-7.53,7.55-7.54
			c2.85-0.01,5.21,1.49,6.45,3.86l-3.01,1.8c-0.62-1.42-1.92-2.28-3.43-2.28c-2.21,0-4,1.75-4,4.14c0,2.4,1.67,4.23,4.01,4.22
			c1.52,0,2.83-0.57,3.29-1.78l-3.16,0.01l-0.01-3.05l6.33-0.01l0.02,8.12h-0.19L216.56,92.71z"/>
		<path class="st0" d="M226.68,87.28c-1.29-0.33-2.64,0.23-2.64,1.93l0.01,4.83l-3.44,0.01l-0.02-10.26l0.19,0l2.18,1.45
			c0.64-0.79,2-1.63,3.72-1.47L226.68,87.28z"/>
		<path class="st0" d="M238.25,83.75l0.02,10.48h-0.19l-2.21-1.45c-0.71,0.79-1.89,1.46-3.42,1.47c-2.73,0.01-5.17-2.16-5.18-5.23
			s2.42-5.25,5.16-5.25c1.54,0,2.72,0.67,3.43,1.45l2.21-1.46H238.25z M234.93,89c0-1.35-1.03-2.22-2.14-2.22
			c-1.09,0-2.11,0.88-2.11,2.23c0,1.35,1.03,2.23,2.12,2.22C233.9,91.23,234.93,90.35,234.93,89z"/>
		<path class="st0" d="M244.94,86.83c-1.01,0-1.61,0.77-1.6,1.99l0.01,5.18l-3.44,0.01l-0.02-10.26h0.19l2.17,1.45
			c0.69-0.77,1.83-1.46,3.25-1.47c2.58,0,4.44,1.56,4.45,4.56l0.01,5.69l-3.44,0.01l-0.01-5.2
			C246.5,87.61,245.95,86.83,244.94,86.83z"/>
		<path class="st0" d="M252.5,93.98l-0.01-7.08l-1.74,0v-0.19l1.73-3.02l-0.01-3.01l3.44-0.01l0.01,3.26l1.83,0l0.01,2.96l-1.83,0
			l0.01,7.08L252.5,93.98z"/>
		<path class="st0" d="M264.08,87.82c1.54,0.37,2.72,1.29,2.72,2.9c0,2.08-1.81,3.47-4.24,3.47c-1.8,0-3.26-0.5-4.55-1.53l1.44-2.27
			c1.13,0.86,2.04,1.21,3.13,1.21c0.56,0,0.93-0.23,0.93-0.62c0-0.26-0.17-0.43-0.66-0.54l-1.87-0.43c-1.4-0.3-2.51-1.34-2.51-2.91
			c0-1.93,1.6-3.39,4.09-3.4c1.65,0,2.86,0.42,4.12,1.4l-1.47,2.17c-1.11-0.69-1.74-0.99-2.68-0.99c-0.47,0-0.82,0.21-0.82,0.58
			c0,0.28,0.21,0.41,0.58,0.52L264.08,87.82z"/>
		<path class="st0" d="M283.76,89.84c0.01,2.6-1.9,4.08-5.05,4.09l-5.82,0.01l-0.03-14.6l5.13-0.01c3.28-0.01,5.02,1.41,5.02,3.92
			c0,1.57-0.93,2.66-2.07,3.04C282.48,86.69,283.76,88.13,283.76,89.84z M277.61,85.23c1.16,0,1.91-0.47,1.91-1.46
			c0-0.99-0.75-1.42-1.91-1.42l-1.27,0l0.01,2.88L277.61,85.23z M276.35,90.9l1.85,0c1.16,0,1.95-0.57,1.94-1.5
			c0-0.97-0.79-1.52-1.95-1.51l-1.85,0L276.35,90.9z"/>
		<path class="st0" d="M284.51,88.9c-0.01-3.07,2.44-5.25,5.32-5.25c2.88-0.01,5.34,2.16,5.35,5.23c0.01,3.07-2.44,5.25-5.32,5.25
			C286.98,94.13,284.52,91.97,284.51,88.9z M291.96,88.88c0-1.33-1.03-2.21-2.12-2.2c-1.09,0-2.11,0.88-2.11,2.21
			c0,1.33,1.03,2.21,2.12,2.2C290.94,91.09,291.97,90.21,291.96,88.88z"/>
		<path class="st0" d="M306.88,83.61l0.02,10.48h-0.19l-2.21-1.45c-0.71,0.79-1.89,1.46-3.42,1.47c-2.73,0.01-5.17-2.16-5.18-5.23
			c-0.01-3.07,2.42-5.25,5.16-5.25c1.54,0,2.72,0.67,3.43,1.45l2.21-1.46H306.88z M303.55,88.86c0-1.35-1.03-2.22-2.14-2.22
			c-1.09,0-2.11,0.88-2.11,2.23s1.03,2.22,2.12,2.22C302.53,91.09,303.56,90.21,303.55,88.86z"/>
		<path class="st0" d="M314.6,87.09c-1.29-0.33-2.64,0.23-2.64,1.93l0.01,4.83l-3.44,0.01l-0.02-10.26h0.19l2.17,1.45
			c0.64-0.79,2-1.63,3.72-1.47L314.6,87.09z"/>
		<path class="st0" d="M322.69,79.23l3.44-0.01l0.03,14.83l-0.19,0l-2.19-1.46c-0.73,0.79-1.89,1.46-3.44,1.47
			c-2.73,0.01-5.15-2.16-5.16-5.23s2.25-5.25,4.86-5.25c1.23,0,2.06,0.39,2.66,0.97L322.69,79.23z M318.59,88.83
			c0,1.35,1.03,2.23,2.12,2.22c1.09,0,2.11-0.88,2.11-2.23c0-1.37-1.03-2.23-2.12-2.22C319.62,86.6,318.59,87.46,318.59,88.83z"/>
	</g>
	<g>
		<path class="st1" d="M272.01,41.75v3.48h-2.15v-8.85h5.23v1.87h-3.09v1.62h2.87v1.87H272.01z"/>
		<path class="st1" d="M277.96,42.32c0,0.7,0.29,1.18,0.92,1.18c0.6,0,0.95-0.48,0.95-1.21v-3.13h2.09v6.22h-0.11l-1.33-0.89
			c-0.42,0.47-1.11,0.89-1.96,0.89c-1.57,0-2.65-0.95-2.65-2.77v-3.45h2.09V42.32z"/>
		<path class="st1" d="M285.99,40.89c-0.61,0-0.98,0.47-0.98,1.2v3.14h-2.09v-6.22h0.11l1.32,0.89c0.42-0.47,1.11-0.89,1.98-0.89
			c1.57,0,2.69,0.95,2.69,2.77v3.45h-2.09v-3.16C286.93,41.36,286.6,40.89,285.99,40.89z"/>
		<path class="st1" d="M294.22,36.38h2.09v8.99h-0.11l-1.33-0.89c-0.44,0.48-1.15,0.89-2.09,0.89c-1.66,0-3.12-1.32-3.12-3.18
			c0-1.86,1.37-3.18,2.95-3.18c0.75,0,1.25,0.24,1.61,0.59V36.38z M291.73,42.19c0,0.82,0.62,1.35,1.28,1.35
			c0.66,0,1.28-0.53,1.28-1.35c0-0.83-0.62-1.35-1.28-1.35C292.35,40.84,291.73,41.36,291.73,42.19z"/>
		<path class="st1" d="M297,42.19c0-1.88,1.51-3.18,3.24-3.18c2,0,3.07,1.45,3.07,3.22v0.52h-4.29c0.2,0.6,0.75,0.9,1.28,0.9
			c0.59,0,1.01-0.2,1.34-0.62l1.41,1.01c-0.59,0.86-1.6,1.33-2.75,1.33C298.51,45.37,297,44.06,297,42.19z M299.02,41.56h2.35
			c-0.07-0.45-0.49-0.87-1.14-0.87C299.71,40.68,299.22,40.99,299.02,41.56z"/>
		<path class="st1" d="M308.24,36.38h2.09v8.99h-0.11l-1.33-0.89c-0.44,0.48-1.15,0.89-2.09,0.89c-1.66,0-3.12-1.32-3.12-3.18
			c0-1.86,1.37-3.18,2.95-3.18c0.75,0,1.25,0.24,1.61,0.59V36.38z M305.74,42.19c0,0.82,0.62,1.35,1.28,1.35
			c0.66,0,1.28-0.53,1.28-1.35c0-0.83-0.62-1.35-1.28-1.35C306.37,40.84,305.74,41.36,305.74,42.19z"/>
		<path class="st1" d="M316.33,39.6c0.36-0.35,0.86-0.59,1.61-0.59c1.58,0,2.95,1.32,2.95,3.18c0,1.86-1.46,3.18-3.12,3.18
			c-0.94,0-1.65-0.41-2.09-0.89l-1.33,0.89h-0.11v-8.99h2.09V39.6z M317.54,40.84c-0.66,0-1.28,0.52-1.28,1.35
			c0,0.82,0.62,1.35,1.28,1.35c0.66,0,1.28-0.53,1.28-1.35C318.83,41.36,318.2,40.84,317.54,40.84z"/>
		<path class="st1" d="M321.83,47.73l1.35-3.02l-2.53-5.56h2.27l1.36,3.11l1.38-3.11h2.13l-3.84,8.58H321.83z"/>
	</g>
</g>
</svg>
