<svg xmlns="http://www.w3.org/2000/svg" viewBox="0 0 705.46 705.48"><defs><style>.cls-1{fill:none;}.cls-2{fill:#1a1a1a;}</style></defs><g id="Layer_2" data-name="Layer 2"><g id="Final_Merged"><path class="cls-1" d="M537.68,430.8c-6.9,0-11.75,5.39-11.75,12.43s4.85,12.53,11.75,12.53,11.7-5.4,11.7-12.44S544.54,430.8,537.68,430.8Z"/><path class="cls-1" d="M574.67,437.06c0-3.79-3-5.8-7.68-5.8h-4v11.79c.91.05,2.19.09,3.66.09C571.24,443.14,574.67,441,574.67,437.06Z"/><path class="cls-1" d="M139.82,430.8c-6.9,0-11.75,5.39-11.75,12.43s4.85,12.53,11.75,12.53,11.71-5.4,11.71-12.44S146.68,430.8,139.82,430.8Z"/><path class="cls-1" d="M441.55,336.87h-6.64v53.07h7.57c19.78,0,30-10.71,30-27.12C472.5,346.06,460.63,336.87,441.55,336.87Z"/><path class="cls-1" d="M260.69,295.27c14.78,0,25.61-11.4,25.61-27.46s-10.83-27.47-25.61-27.47S235,251.75,235,267.81,245.8,295.27,260.69,295.27Z"/><path class="cls-1" d="M122.32,336.87h-6.63v53.07h7.56c19.79,0,30-10.71,30-27.12C153.28,346.06,141.41,336.87,122.32,336.87Z"/><path class="cls-1" d="M553.86,81.49A335.19,335.19,0,0,0,353.46,15a342,342,0,0,0-50.31,3.73A337.68,337.68,0,0,0,18.73,402.35c1.69,11.33,3.94,22.57,6.74,33.65q3,11.76,6.78,23.25C63.16,531,100.78,572.18,144.18,581.79c20.18,4.47,37.62,1.34,54.49-1.69,21.35-3.84,43.42-7.8,71.14,3.61,25.34,10.44,37.3,26.28,48.85,41.59,9.19,12.18,18.7,24.77,34.91,34.54,37.8,22.78,93.4,18.42,165.25-13q12-6.81,23.57-14.65A337.75,337.75,0,0,0,553.86,81.49ZM466,294.34h8.73V241.27H466V229.52h31.43v11.75h-9.55v20.25h35.38V241.27H513.7V229.52h31.42v11.75h-8.73v53.07h8.73v11.75H513.7V294.34h9.54V273H487.86v21.3h9.55v11.75H466Zm56.92,95.6v11.75H491.12V389.94h9.31V336.87h-9.31V325.11H522.9v11.76h-9.31v53.07Zm-135-160.42h66.45V253H441.9V240.92H427.7v53.42h9.54v11.75H405V294.34h9.55V240.92h-14.2V253H387.9ZM343.56,336.87V325.11H400.7V347H388.13V336.75H365.44v20.48h23.15v11.18H365.44v21.64h22.81V379.81h12.56v21.88H343.56V389.94h8.72V336.87ZM303.75,229.52h30.73v11.75h-9.2v36.2c0,11.75,5.94,18,15.72,18s15.82-5.7,15.82-17.57V241.27h-9.19V229.52H378v11.75h-8.38v36.66c0,20-11.75,29.56-28.62,29.56-17.11,0-28.87-9.54-28.87-29.33V241.27h-8.38Zm-42.82-1.4c23.16,0,39,17.34,39,39.69s-16.29,39.68-39.57,39.68-39-17.34-39-39.68S237.65,228.12,260.93,228.12Zm-92.17,52.49c5.12,0,8.37,3.84,8.37,7.56a9.83,9.83,0,0,1-1,4.66c2.79,2,7.1,3.26,12.1,3.26,8.38,0,13.73-3.73,13.73-10.36,0-6.29-6.4-9.31-14.08-12-14.2-5.12-24.21-9.66-24.21-23.86,0-12.22,9.9-21.76,25.38-21.76,14.31,0,25.37,7.33,25.37,16.53,0,5.47-3.38,8.61-7.8,8.61-5.35,0-8.38-4-8.38-7.8a6.94,6.94,0,0,1,.81-3.61c-2.09-1.28-5.35-2.32-10.12-2.32-7.57,0-12,3.84-12,9.42,0,6.29,6.4,9.08,14.08,11.87,13.74,4.89,24.09,9.66,24.09,23.86,0,14.55-11.28,22.81-27,22.81-15.12,0-27.34-8.49-27.34-17.81C160.73,284.22,164,280.61,168.76,280.61Zm-59,178.26a15.11,15.11,0,0,1-15.41-15.45,15.32,15.32,0,0,1,15.27-15.73c6.31,0,11.25,3.79,11.25,7.41a2.76,2.76,0,0,1-2.65,3,2.43,2.43,0,0,1-2.52-2.43,2,2,0,0,1,1.15-1.83c-.83-1.32-3.43-3-7.27-3-6.86,0-11.75,5.8-11.75,12.57,0,6.45,4.84,12.39,11.93,12.39a13.23,13.23,0,0,0,9.33-3.89l2,2.43A16.09,16.09,0,0,1,109.74,458.87Zm30,0c-8.78,0-15.13-6.86-15.13-15.55s6.45-15.63,15.32-15.63,15.13,6.86,15.13,15.54S148.55,458.87,139.73,458.87Zm-18.34-57.18H93.81V389.94h8.73V336.87H93.81V325.11h29c27.69,0,44.1,14.43,44.1,37.59C166.89,386.1,151.42,401.69,121.39,401.69Zm71.74,56.63H182.07v-3h3.84l-.78-21-9.69,19.8h-.91l-9.7-19.8-.73,21h3.8v3h-11v-3h3.93l1.1-24h-4v-3h7.32L175,448.67l9.87-20.43h7.27v3h-4l1.1,24h3.88Zm40.78,0H222.85v-3h3.84l-.78-21-9.69,19.8h-.91l-9.69-19.8-.74,21h3.8v3h-11v-3h3.93l1.1-24h-4v-3H206l9.83,20.43,9.87-20.43H233v3h-4l1.1,24h3.88Zm2.69-84.79c0,20-11.75,29.56-28.62,29.56-17.11,0-28.87-9.55-28.87-29.33V336.87h-8.38V325.11h30.73v11.76h-9.2v36.19c0,11.76,5.94,18,15.72,18s15.82-5.7,15.82-17.57V336.87h-9.19V325.11H245v11.76H236.6Zm29.73,57.73h-3.79V447.8c0,7.14-4.21,11.07-11,11.07s-10.88-3.89-10.88-10.93V431.26h-3.79v-3H248v3h-4v16.45c0,5.35,2.79,8.05,7.59,8.05s7.63-2.56,7.63-8V431.26h-4v-3h11.06Zm34.79,0h-3.7v27.15l-1.88,0-18.42-24.28V455.3h3.93v3H270v-3h3.84v-24H270v-3h6.81l17.37,22.9V431.26h-4v-3h10.92Zm15.37,0h-4.07v24h4.07v3H305v-3H309v-24H305v-3h11.52ZM318.07,402l-41.78-53.19v41.09h9.54v11.75H254.76V389.94h8.73V336.87h-8.73V325.11h19.9l37.71,48.07V336.87h-9.55V325.11h30.73v11.76h-8.38v64.94ZM345.61,436h-3.25v-4.84h-7.54V455.3h4.07v3H327.32v-3h4.07V431.12h-7.54V436H320.6v-7.72h25Zm30-4.7h-3.25l-8.91,15v9.05h4.25v3H355.81v-3H360v-9l-8.87-15h-3.2v-3h10.11v3h-3.11l6.85,12.11,6.91-12.11h-3.25v-3H375.6Zm44.48,0h-3.7v27.15l-1.87,0-18.43-24.28V455.3H400v3H389v-3h3.84v-24H389v-3h6.81l17.38,22.9V431.26h-4v-3h10.92Zm25.7,27.06h-21.9v-3h3.84v-24h-3.84v-3h21.86v7.36h-3.25v-4.39H431.15v10.33H441v2.93h-9.83v10.88h11.34V451h3.29ZM474.63,436h-3.25v-4.84h-7.54V455.3h4.07v3H456.34v-3h4.07V431.12h-7.54V436h-3.25v-7.72h25Zm-34-34.27H413V389.94h8.73V336.87H413V325.11h29c27.7,0,44.11,14.43,44.11,37.59C486.12,386.1,470.64,401.69,440.62,401.69Zm81.69,29.57h-3.47l-8.41,27.52h-2l-7.77-20.71-7.82,20.71h-2l-8.55-27.52h-3.48v-3h10.88v3H486l6.31,21.07,7.54-20.48h1.88l7.59,20.43,6.12-21h-3.93v-3h10.83Zm15.28,27.61c-8.78,0-15.13-6.86-15.13-15.55s6.44-15.63,15.31-15.63,15.13,6.86,15.13,15.54S546.41,458.87,537.59,458.87Zm44-.55h-5.94L568.22,446c-.55.05-1.14.09-1.74.09-1.19,0-2.6,0-3.47-.09v9.28h3.93v3h-11.2v-3h3.84v-24h-3.84v-3h11.43c6.63,0,10.92,3.34,10.92,8.73,0,4.11-2.65,7-6.44,8.23L578,455.3h3.61Zm30.54,0h-6l-9.92-15.09-4.94,4.94v7.13h3.94v3H584v-3h3.83v-24H584v-3h11.2v3h-3.94v13.12l13-13.12h-4v-3h11.61v3H608.5L598.72,441l9.6,14.31h3.79Zm.51-121.45h-8.38v64.94l-7.1.23-41.78-53.19v41.09h9.55v11.75H533.83V389.94h8.73V336.87h-8.73V325.11h19.9l37.71,48.07V336.87H581.9V325.11h30.72Z"/><path class="cls-2" d="M188.07,307.49c15.72,0,27-8.26,27-22.81,0-14.2-10.35-19-24.09-23.86C183.3,258,176.9,255.24,176.9,249c0-5.58,4.42-9.42,12-9.42,4.77,0,8,1,10.12,2.32a6.94,6.94,0,0,0-.81,3.61c0,3.84,3,7.8,8.38,7.8,4.42,0,7.8-3.14,7.8-8.61,0-9.2-11.06-16.53-25.37-16.53-15.48,0-25.38,9.54-25.38,21.76,0,14.2,10,18.74,24.21,23.86,7.68,2.68,14.08,5.7,14.08,12,0,6.63-5.35,10.36-13.73,10.36-5,0-9.31-1.28-12.1-3.26a9.83,9.83,0,0,0,1-4.66c0-3.72-3.25-7.56-8.37-7.56-4.78,0-8,3.61-8,9.07C160.73,299,173,307.49,188.07,307.49Z"/><path class="cls-2" d="M260.34,307.49c23.28,0,39.57-17.22,39.57-39.68s-15.82-39.69-39-39.69-39.57,17.22-39.57,39.69S237.19,307.49,260.34,307.49Zm.35-67.15c14.78,0,25.61,11.52,25.61,27.47s-10.83,27.46-25.61,27.46S235,283.75,235,267.81,245.8,240.34,260.69,240.34Z"/><path class="cls-2" d="M312.13,278.16c0,19.79,11.76,29.33,28.87,29.33,16.87,0,28.62-9.54,28.62-29.56V241.27H378V229.52H347.63v11.75h9.19v36.66c0,11.87-5.93,17.57-15.82,17.57s-15.72-6.28-15.72-18v-36.2h9.2V229.52H303.75v11.75h8.38Z"/><polygon class="cls-2" points="400.35 240.92 414.55 240.92 414.55 294.34 405 294.34 405 306.09 437.24 306.09 437.24 294.34 427.7 294.34 427.7 240.92 441.89 240.92 441.89 253.03 454.35 253.03 454.35 229.52 387.89 229.52 387.89 253.03 400.35 253.03 400.35 240.92"/><polygon class="cls-2" points="497.41 294.34 487.86 294.34 487.86 273.04 523.24 273.04 523.24 294.34 513.7 294.34 513.7 306.09 545.12 306.09 545.12 294.34 536.39 294.34 536.39 241.27 545.12 241.27 545.12 229.52 513.7 229.52 513.7 241.27 523.24 241.27 523.24 261.52 487.86 261.52 487.86 241.27 497.41 241.27 497.41 229.52 465.98 229.52 465.98 241.27 474.71 241.27 474.71 294.34 465.98 294.34 465.98 306.09 497.41 306.09 497.41 294.34"/><path class="cls-2" d="M122.79,325.11h-29v11.76h8.73v53.07H93.81v11.75h27.58c30,0,45.5-15.59,45.5-39C166.89,339.54,150.48,325.11,122.79,325.11Zm.46,64.83h-7.56V336.87h6.63c19.09,0,31,9.19,31,25.95C153.28,379.23,143,389.94,123.25,389.94Z"/><path class="cls-2" d="M245,325.11H214.61v11.76h9.19v36.66c0,11.87-5.93,17.57-15.82,17.57s-15.72-6.28-15.72-18V336.87h9.2V325.11H170.73v11.76h8.38v36.89c0,19.78,11.76,29.33,28.87,29.33,16.87,0,28.62-9.55,28.62-29.56V336.87H245Z"/><polygon class="cls-2" points="325.17 336.87 333.55 336.87 333.55 325.11 302.82 325.11 302.82 336.87 312.37 336.87 312.37 373.18 274.66 325.11 254.76 325.11 254.76 336.87 263.49 336.87 263.49 389.94 254.76 389.94 254.76 401.69 285.83 401.69 285.83 389.94 276.29 389.94 276.29 348.86 318.07 402.04 325.17 401.81 325.17 336.87"/><polygon class="cls-2" points="343.56 389.94 343.56 401.69 400.81 401.69 400.81 379.81 388.25 379.81 388.25 390.05 365.44 390.05 365.44 368.41 388.6 368.41 388.6 357.23 365.44 357.23 365.44 336.75 388.13 336.75 388.13 346.99 400.7 346.99 400.7 325.11 343.56 325.11 343.56 336.87 352.28 336.87 352.28 389.94 343.56 389.94"/><path class="cls-2" d="M442,325.11H413v11.76h8.73v53.07H413v11.75h27.59c30,0,45.5-15.59,45.5-39C486.12,339.54,469.71,325.11,442,325.11Zm.47,64.83h-7.57V336.87h6.64c19.08,0,30.95,9.19,30.95,25.95C472.5,379.23,462.26,389.94,442.48,389.94Z"/><polygon class="cls-2" points="522.89 336.87 522.89 325.11 491.12 325.11 491.12 336.87 500.44 336.87 500.44 389.94 491.12 389.94 491.12 401.69 522.89 401.69 522.89 389.94 513.59 389.94 513.59 336.87 522.89 336.87"/><polygon class="cls-2" points="581.9 336.87 591.44 336.87 591.44 373.18 553.73 325.11 533.83 325.11 533.83 336.87 542.56 336.87 542.56 389.94 533.83 389.94 533.83 401.69 564.91 401.69 564.91 389.94 555.36 389.94 555.36 348.86 597.14 402.04 604.24 401.81 604.24 336.87 612.62 336.87 612.62 325.11 581.9 325.11 581.9 336.87"/><path class="cls-2" d="M109.74,455.76c-7.09,0-11.93-5.94-11.93-12.39,0-6.77,4.89-12.57,11.75-12.57,3.84,0,6.44,1.69,7.27,3a2,2,0,0,0-1.15,1.83,2.43,2.43,0,0,0,2.52,2.43,2.76,2.76,0,0,0,2.65-3c0-3.62-4.94-7.41-11.25-7.41a15.32,15.32,0,0,0-15.27,15.73,15.11,15.11,0,0,0,15.41,15.45,16.09,16.09,0,0,0,11.34-4.57l-2-2.43A13.23,13.23,0,0,1,109.74,455.76Z"/><path class="cls-2" d="M139.92,427.69c-8.87,0-15.32,6.81-15.32,15.63s6.35,15.55,15.13,15.55,15.32-6.81,15.32-15.64S148.65,427.69,139.92,427.69Zm-.1,28.07c-6.9,0-11.75-5.44-11.75-12.53s4.85-12.43,11.75-12.43,11.71,5.44,11.71,12.52S146.68,455.76,139.82,455.76Z"/><polygon class="cls-2" points="188.15 431.25 192.17 431.25 192.17 428.24 184.9 428.24 175.03 448.67 165.2 428.24 157.88 428.24 157.88 431.25 161.91 431.25 160.81 455.3 156.88 455.3 156.88 458.32 167.9 458.32 167.9 455.3 164.1 455.3 164.83 434.27 174.53 454.07 175.44 454.07 185.13 434.27 185.91 455.3 182.07 455.3 182.07 458.32 193.13 458.32 193.13 455.3 189.25 455.3 188.15 431.25"/><polygon class="cls-2" points="228.93 431.25 232.95 431.25 232.95 428.24 225.69 428.24 215.81 448.67 205.98 428.24 198.67 428.24 198.67 431.25 202.69 431.25 201.59 455.3 197.66 455.3 197.66 458.32 208.68 458.32 208.68 455.3 204.88 455.3 205.62 434.27 215.31 454.07 216.22 454.07 225.91 434.27 226.69 455.3 222.85 455.3 222.85 458.32 233.91 458.32 233.91 455.3 230.03 455.3 228.93 431.25"/><path class="cls-2" d="M255.27,431.26h4V447.8c0,5.4-2.83,8-7.63,8s-7.59-2.7-7.59-8.05V431.26h4v-3H236.89v3h3.79v16.68c0,7,4,10.93,10.88,10.93s11-3.93,11-11.07V431.26h3.79v-3H255.27Z"/><polygon class="cls-2" points="290.2 431.25 294.17 431.25 294.17 451.14 276.8 428.24 269.99 428.24 269.99 431.25 273.83 431.25 273.83 455.3 269.99 455.3 269.99 458.32 281.05 458.32 281.05 455.3 277.12 455.3 277.12 434.18 295.55 458.45 297.42 458.41 297.42 431.25 301.12 431.25 301.12 428.24 290.2 428.24 290.2 431.25"/><polygon class="cls-2" points="304.97 431.25 309.03 431.25 309.03 455.3 304.97 455.3 304.97 458.32 316.49 458.32 316.49 455.3 312.42 455.3 312.42 431.25 316.49 431.25 316.49 428.24 304.97 428.24 304.97 431.25"/><polygon class="cls-2" points="320.6 435.96 323.85 435.96 323.85 431.12 331.39 431.12 331.39 455.3 327.32 455.3 327.32 458.32 338.89 458.32 338.89 455.3 334.82 455.3 334.82 431.12 342.36 431.12 342.36 435.96 345.61 435.96 345.61 428.24 320.6 428.24 320.6 435.96"/><polygon class="cls-2" points="365.45 431.25 368.7 431.25 361.8 443.37 354.94 431.25 358.05 431.25 358.05 428.24 347.94 428.24 347.94 431.25 351.14 431.25 360.01 446.3 360.01 455.3 355.81 455.3 355.81 458.32 367.69 458.32 367.69 455.3 363.44 455.3 363.44 446.25 372.35 431.25 375.6 431.25 375.6 428.24 365.45 428.24 365.45 431.25"/><polygon class="cls-2" points="409.16 431.25 413.14 431.25 413.14 451.14 395.76 428.24 388.95 428.24 388.95 431.25 392.79 431.25 392.79 455.3 388.95 455.3 388.95 458.32 400.02 458.32 400.02 455.3 396.08 455.3 396.08 434.18 414.51 458.45 416.38 458.41 416.38 431.25 420.08 431.25 420.08 428.24 409.16 428.24 409.16 431.25"/><polygon class="cls-2" points="442.49 455.35 431.15 455.35 431.15 444.47 440.98 444.47 440.98 441.54 431.15 441.54 431.15 431.21 442.49 431.21 442.49 435.6 445.74 435.6 445.74 428.24 423.88 428.24 423.88 431.25 427.72 431.25 427.72 455.3 423.88 455.3 423.88 458.32 445.78 458.32 445.78 450.96 442.49 450.96 442.49 455.35"/><polygon class="cls-2" points="449.62 435.96 452.87 435.96 452.87 431.12 460.41 431.12 460.41 455.3 456.35 455.3 456.35 458.32 467.91 458.32 467.91 455.3 463.84 455.3 463.84 431.12 471.38 431.12 471.38 435.96 474.63 435.96 474.63 428.24 449.62 428.24 449.62 435.96"/><polygon class="cls-2" points="511.48 431.25 515.41 431.25 509.29 452.29 501.7 431.85 499.82 431.85 492.28 452.33 485.97 431.25 489.76 431.25 489.76 428.24 478.88 428.24 478.88 431.25 482.36 431.25 490.91 458.78 492.87 458.78 500.69 438.07 508.46 458.78 510.43 458.78 518.84 431.25 522.31 431.25 522.31 428.24 511.48 428.24 511.48 431.25"/><path class="cls-2" d="M537.77,427.69c-8.87,0-15.31,6.81-15.31,15.63s6.35,15.55,15.13,15.55,15.31-6.81,15.31-15.64S546.5,427.69,537.77,427.69Zm-.09,28.07c-6.9,0-11.75-5.44-11.75-12.53s4.85-12.43,11.75-12.43,11.7,5.44,11.7,12.52S544.54,455.76,537.68,455.76Z"/><path class="cls-2" d="M571.65,445.2c3.79-1.24,6.44-4.12,6.44-8.23,0-5.39-4.29-8.73-10.92-8.73H555.74v3h3.84v24h-3.84v3h11.2v-3H563V446c.87.05,2.28.09,3.47.09.6,0,1.19,0,1.74-.09l7.41,12.3h5.94v-3H578Zm-5-2.06c-1.47,0-2.75,0-3.66-.09V431.26h4c4.66,0,7.68,2,7.68,5.8C574.67,441,571.24,443.14,566.67,443.14Z"/><polygon class="cls-2" points="598.72 440.99 608.5 431.25 611.88 431.25 611.88 428.24 600.27 428.24 600.27 431.21 604.29 431.21 591.26 444.33 591.26 431.21 595.2 431.21 595.2 428.24 584 428.24 584 431.25 587.84 431.25 587.84 455.3 584 455.3 584 458.32 595.2 458.32 595.2 455.3 591.26 455.3 591.26 448.17 596.2 443.23 606.12 458.32 612.11 458.32 612.11 455.3 608.32 455.3 598.72 440.99"/><path class="cls-2" d="M701.6,301A352.58,352.58,0,0,0,69.44,142.7,351.67,351.67,0,0,0,3.89,404.55,351.83,351.83,0,0,0,170.81,654.89a351.22,351.22,0,0,0,181.48,50.59,355.09,355.09,0,0,0,52.26-3.88,349.47,349.47,0,0,0,146.28-57A352.73,352.73,0,0,0,701.6,301Zm-40.69,190A338.43,338.43,0,0,1,542.39,632.24q-11.53,7.85-23.57,14.65c-71.85,31.37-127.45,35.73-165.25,13-16.21-9.77-25.72-22.36-34.91-34.54-11.55-15.31-23.51-31.15-48.85-41.59-27.72-11.41-49.79-7.45-71.14-3.61-16.87,3-34.31,6.16-54.49,1.69-43.4-9.61-81-50.81-111.93-122.54q-3.8-11.47-6.78-23.25c-2.8-11.08-5-22.32-6.74-33.65A337.68,337.68,0,0,1,303.15,18.73,342,342,0,0,1,353.46,15,337.8,337.8,0,0,1,660.91,490.92Z"/></g></g></svg>